<svg xmlns="http://www.w3.org/2000/svg" viewBox="0 0 16 16" shape-rendering="crispEdges" preserveAspectRatio="xMidYMid meet"><rect x="7" y="3" width="1" height="1" fill="#ffb020"/><rect x="6" y="4" width="2" height="1" fill="#ffb020"/><rect x="6" y="5" width="3" height="1" fill="#ffb020"/><rect x="5" y="6" width="2" height="1" fill="#ffb020"/><rect x="7" y="6" width="1" height="1" fill="#d9534f"/><rect x="8" y="6" width="2" height="1" fill="#ffb020"/><rect x="5" y="7" width="1" height="1" fill="#ffb020"/><rect x="6" y="7" width="3" height="1" fill="#d9534f"/><rect x="9" y="7" width="1" height="1" fill="#ffb020"/><rect x="4" y="8" width="2" height="1" fill="#ffb020"/><rect x="6" y="8" width="3" height="1" fill="#d9534f"/><rect x="9" y="8" width="2" height="1" fill="#ffb020"/><rect x="4" y="9" width="2" height="1" fill="#ffb020"/><rect x="6" y="9" width="3" height="1" fill="#d9534f"/><rect x="9" y="9" width="2" height="1" fill="#ffb020"/><rect x="5" y="10" width="2" height="1" fill="#ffb020"/><rect x="7" y="10" width="1" height="1" fill="#d9534f"/><rect x="8" y="10" width="2" height="1" fill="#ffb020"/><rect x="6" y="11" width="3" height="1" fill="#ffb020"/></svg>