<svg xmlns="http://www.w3.org/2000/svg" viewBox="0 0 16 16" shape-rendering="crispEdges" preserveAspectRatio="xMidYMid meet"><rect x="4" y="2" width="7" height="1" fill="#16c96a"/><rect x="11" y="2" width="1" height="1" fill="#13100c"/><rect x="4" y="3" width="1" height="1" fill="#16c96a"/><rect x="5" y="3" width="5" height="1" fill="#13100c"/><rect x="10" y="3" width="1" height="1" fill="#1e5c43"/><rect x="11" y="3" width="1" height="1" fill="#16c96a"/><rect x="4" y="4" width="1" height="1" fill="#16c96a"/><rect x="5" y="4" width="6" height="1" fill="#13100c"/><rect x="11" y="4" width="1" height="1" fill="#16c96a"/><rect x="4" y="5" width="1" height="1" fill="#16c96a"/><rect x="5" y="5" width="1" height="1" fill="#13100c"/><rect x="6" y="5" width="4" height="1" fill="#2fbf71"/><rect x="10" y="5" width="1" height="1" fill="#13100c"/><rect x="11" y="5" width="1" height="1" fill="#16c96a"/><rect x="4" y="6" width="1" height="1" fill="#16c96a"/><rect x="5" y="6" width="6" height="1" fill="#13100c"/><rect x="11" y="6" width="1" height="1" fill="#16c96a"/><rect x="4" y="7" width="1" height="1" fill="#16c96a"/><rect x="5" y="7" width="1" height="1" fill="#13100c"/><rect x="6" y="7" width="4" height="1" fill="#2fbf71"/><rect x="10" y="7" width="1" height="1" fill="#13100c"/><rect x="11" y="7" width="1" height="1" fill="#16c96a"/><rect x="4" y="8" width="1" height="1" fill="#16c96a"/><rect x="5" y="8" width="6" height="1" fill="#13100c"/><rect x="11" y="8" width="1" height="1" fill="#16c96a"/><rect x="4" y="9" width="1" height="1" fill="#16c96a"/><rect x="5" y="9" width="1" height="1" fill="#13100c"/><rect x="6" y="9" width="3" height="1" fill="#2fbf71"/><rect x="9" y="9" width="2" height="1" fill="#13100c"/><rect x="11" y="9" width="1" height="1" fill="#16c96a"/><rect x="4" y="10" width="1" height="1" fill="#16c96a"/><rect x="5" y="10" width="3" height="1" fill="#13100c"/><rect x="8" y="10" width="1" height="1" fill="#2fbf71"/><rect x="9" y="10" width="2" height="1" fill="#13100c"/><rect x="11" y="10" width="1" height="1" fill="#16c96a"/><rect x="4" y="11" width="1" height="1" fill="#16c96a"/><rect x="5" y="11" width="1" height="1" fill="#13100c"/><rect x="6" y="11" width="2" height="1" fill="#2fbf71"/><rect x="8" y="11" width="3" height="1" fill="#13100c"/><rect x="11" y="11" width="1" height="1" fill="#16c96a"/><rect x="4" y="12" width="1" height="1" fill="#16c96a"/><rect x="5" y="12" width="6" height="1" fill="#13100c"/><rect x="11" y="12" width="1" height="1" fill="#16c96a"/><rect x="4" y="13" width="8" height="1" fill="#16c96a"/></svg>