<svg xmlns="http://www.w3.org/2000/svg" viewBox="0 0 60 15" shape-rendering="crispEdges" preserveAspectRatio="xMidYMid meet"><rect x="0" y="0" width="60" height="1" fill="#c9a227"/><rect x="0" y="2" width="60" height="1" fill="#c9a227"/><rect x="3" y="5" width="5" height="1" fill="#f0e6d2"/><rect x="9" y="5" width="1" height="1" fill="#f0e6d2"/><rect x="13" y="5" width="1" height="1" fill="#f0e6d2"/><rect x="15" y="5" width="5" height="1" fill="#f0e6d2"/><rect x="27" y="5" width="5" height="1" fill="#e6c96b"/><rect x="33" y="5" width="1" height="1" fill="#e6c96b"/><rect x="39" y="5" width="5" height="1" fill="#e6c96b"/><rect x="45" y="5" width="5" height="1" fill="#e6c96b"/><rect x="51" y="5" width="4" height="1" fill="#e6c96b"/><rect x="5" y="6" width="1" height="1" fill="#f0e6d2"/><rect x="9" y="6" width="1" height="1" fill="#f0e6d2"/><rect x="13" y="6" width="1" height="1" fill="#f0e6d2"/><rect x="15" y="6" width="1" height="1" fill="#f0e6d2"/><rect x="27" y="6" width="1" height="1" fill="#c9a227"/><rect x="33" y="6" width="1" height="1" fill="#c9a227"/><rect x="39" y="6" width="1" height="1" fill="#c9a227"/><rect x="43" y="6" width="1" height="1" fill="#c9a227"/><rect x="45" y="6" width="1" height="1" fill="#c9a227"/><rect x="49" y="6" width="1" height="1" fill="#c9a227"/><rect x="51" y="6" width="1" height="1" fill="#c9a227"/><rect x="55" y="6" width="1" height="1" fill="#c9a227"/><rect x="5" y="7" width="1" height="1" fill="#f0e6d2"/><rect x="9" y="7" width="5" height="1" fill="#f0e6d2"/><rect x="15" y="7" width="4" height="1" fill="#f0e6d2"/><rect x="27" y="7" width="4" height="1" fill="#c9a227"/><rect x="33" y="7" width="1" height="1" fill="#c9a227"/><rect x="39" y="7" width="1" height="1" fill="#c9a227"/><rect x="43" y="7" width="1" height="1" fill="#c9a227"/><rect x="45" y="7" width="1" height="1" fill="#c9a227"/><rect x="49" y="7" width="1" height="1" fill="#c9a227"/><rect x="51" y="7" width="4" height="1" fill="#c9a227"/><rect x="5" y="8" width="1" height="1" fill="#f0e6d2"/><rect x="9" y="8" width="1" height="1" fill="#f0e6d2"/><rect x="13" y="8" width="1" height="1" fill="#f0e6d2"/><rect x="15" y="8" width="1" height="1" fill="#f0e6d2"/><rect x="27" y="8" width="1" height="1" fill="#c9a227"/><rect x="33" y="8" width="1" height="1" fill="#c9a227"/><rect x="39" y="8" width="1" height="1" fill="#c9a227"/><rect x="43" y="8" width="1" height="1" fill="#c9a227"/><rect x="45" y="8" width="1" height="1" fill="#c9a227"/><rect x="49" y="8" width="1" height="1" fill="#c9a227"/><rect x="51" y="8" width="1" height="1" fill="#c9a227"/><rect x="54" y="8" width="1" height="1" fill="#c9a227"/><rect x="5" y="9" width="1" height="1" fill="#f0e6d2"/><rect x="9" y="9" width="1" height="1" fill="#f0e6d2"/><rect x="13" y="9" width="1" height="1" fill="#f0e6d2"/><rect x="15" y="9" width="5" height="1" fill="#f0e6d2"/><rect x="27" y="9" width="1" height="1" fill="#c9a227"/><rect x="33" y="9" width="5" height="1" fill="#c9a227"/><rect x="39" y="9" width="5" height="1" fill="#c9a227"/><rect x="45" y="9" width="5" height="1" fill="#c9a227"/><rect x="51" y="9" width="1" height="1" fill="#c9a227"/><rect x="55" y="9" width="1" height="1" fill="#c9a227"/><rect x="0" y="12" width="60" height="1" fill="#c9a227"/><rect x="0" y="14" width="60" height="1" fill="#c9a227"/></svg>